Coordinates
version=1
nRows=6
nColumns=46
inDegrees=yes

Units are S.I. units (second, meters, Newtons, ...)
Angles are in degrees.

endheader
time	pelvis_tilt	pelvis_list	pelvis_rotation	pelvis_tx	pelvis_ty	pelvis_tz	bb_angle	bb_tx	bb_ty	bb_tz	hip_flexion_r	hip_adduction_r	hip_rotation_r	knee_angle_r	knee_angle_r_beta	ankle_angle_r	subtalar_angle_r	mtp_angle_r	crank_angle_r	hip_flexion_l	hip_adduction_l	hip_rotation_l	knee_angle_l	knee_angle_l_beta	ankle_angle_l	subtalar_angle_l	mtp_angle_l	crank_angle_l	lumbar_extension	lumbar_bending	lumbar_rotation	arm_flex_r	arm_add_r	arm_rot_r	elbow_flex_r	pro_sup_r	wrist_flex_r	wrist_dev_r	arm_flex_l	arm_add_l	arm_rot_l	elbow_flex_l	pro_sup_l	wrist_flex_l	wrist_dev_l
      0.00000000	    -24.45433278	     -0.61013314	      1.77720750	      0.07724985	      1.16080803	     -0.25308441	      0.00000000	      0.50000000	      0.00000000	      0.25000000	     64.08561988	     -4.66497597	     -2.32897611	     73.80892195	      1.28820871	     16.28684416	     -5.05747322	      0.00000000	      0.00000000	     77.44278417	     -5.12955872	     -1.33148332	     60.31407264	      1.05267915	     16.16631676	     -0.25802361	      0.00000000	      0.00000000	    -50.42114963	      0.98568447	      3.11204471	     89.86945205	      0.39260125	     12.31320410	     45.38236542	     17.17228071	      0.00000000	      0.00000000	     89.84743741	      5.82837014	     10.75652630	     43.37455342	     16.42156852	      0.00000000	      0.00000000
      0.00500000	    -24.44315438	     -0.61560567	      1.76750139	      0.07705476	      1.16064291	     -0.25298167	      0.00000000	      0.50000000	      0.00000000	      0.25000000	     64.11247110	     -4.65789378	     -2.34285911	     73.85256111	      1.28897035	     16.29920846	     -5.04952907	      0.00000000	      0.00000000	     77.46579772	     -5.17359890	     -1.35558004	     60.35214289	      1.05334360	     16.19260403	     -0.16438034	      0.00000000	      0.00000000	    -50.42465364	      0.97664468	      3.13287856	     89.86975840	      0.33116325	     12.44612816	     45.18719499	     18.31175970	      0.00000000	      0.00000000	     89.84754054	      5.79866533	     10.91437164	     43.14756148	     17.56921149	      0.00000000	      0.00000000
      0.01000000	    -24.33208650	     -0.64644885	      1.74419518	      0.07695257	      1.16078494	     -0.25281266	      0.00000000	      0.50000000	      0.00000000	      0.25000000	     64.00204141	     -4.60624523	     -2.36693095	     73.84740022	      1.28888028	     16.27319045	     -5.08547120	      0.00000000	      0.00000000	     77.35055454	     -5.23234390	     -1.35953625	     60.34422356	      1.05320539	     16.24029539	     -0.13320613	      0.00000000	      0.00000000	    -50.57983128	      1.00546154	      3.22061537	     89.86934346	      0.47849758	     11.85021977	     45.01780037	     20.48527260	      0.00000000	      0.00000000	     89.84852944	      5.94474390	     10.38378297	     42.84244217	     19.78532830	      0.00000000	      0.00000000
      0.01500000	    -24.32076870	     -0.74304839	      1.69294558	      0.07680447	      1.16051634	     -0.25286172	      0.00000000	      0.50000000	      0.00000000	      0.25000000	     64.01429201	     -4.53602679	     -2.45741902	     73.87848076	      1.28942274	     16.28970300	     -5.05168081	      0.00000000	      0.00000000	     77.38740895	     -5.29815118	     -1.25104756	     60.38363625	      1.05389327	     16.29292986	     -0.10319660	      0.00000000	      0.00000000	    -50.59824344	      1.07023751	      3.36466688	     89.86910094	      0.58876183	     11.31796642	     44.69114252	     22.93478741	      0.00000000	      0.00000000	     89.84843942	      6.06029792	      9.82920902	     42.48480503	     22.30730746	      0.00000000	      0.00000000
      0.02000000	    -24.46768732	     -0.70046384	      1.68242870	      0.07650787	      1.15983881	     -0.25273928	      0.00000000	      0.50000000	      0.00000000	      0.25000000	     64.26599934	     -4.54321797	     -2.39605540	     73.98023862	      1.29119875	     16.28580785	     -5.11445457	      0.00000000	      0.00000000	     77.58010756	     -5.27706197	     -1.27199469	     60.41859784	      1.05450346	     16.27503335	     -0.23663111	      0.00000000	      0.00000000	    -50.38057322	      1.01867824	      3.27778791	     89.86999544	      0.30921155	     12.41978996	     45.46169087	     17.31945593	      0.00000000	      0.00000000	     89.84693358	      5.80859237	     10.50066815	     43.54318336	     16.56810240	      0.00000000	      0.00000000
      0.02500000	    -24.40825293	     -0.72325765	      1.64344827	      0.07644347	      1.15973833	     -0.25256905	      0.00000000	      0.50000000	      0.00000000	      0.25000000	     64.23059926	     -4.49531590	     -2.40442076	     74.02490454	      1.29197831	     16.25756376	     -5.11295583	      0.00000000	      0.00000000	     77.52002060	     -5.34407441	     -1.24928777	     60.42204001	      1.05456354	     16.35171063	     -0.13586281	      0.00000000	      0.00000000	    -50.43685538	      1.01017323	      3.30734683	     89.87009950	      0.42626510	     12.28148076	     44.91135453	     20.25089931	      0.00000000	      0.00000000	     89.84780960	      5.84952382	     10.42961253	     42.96035982	     19.56799316	      0.00000000	      0.00000000
